<svg id="f5051358-5737-4e23-b384-b027c48654e3" data-name="Capa 1" xmlns="http://www.w3.org/2000/svg" xmlns:xlink="http://www.w3.org/1999/xlink" viewBox="0 0 32.71 34.65"><defs><linearGradient id="064af4b7-350d-4fe2-80cd-2415f17936b4" x1="3.39" y1="33" x2="3.39" y2="27.34" gradientUnits="userSpaceOnUse"><stop offset="0" stop-color="#e9ebed"/><stop offset="0" stop-color="#e8eaec"/><stop offset="1" stop-color="#d1d4d9"/></linearGradient><linearGradient id="de32b69d-0961-4971-a642-fab3b68977dd" x1="9.24" y1="32.88" x2="9.24" y2="27.34" xlink:href="#064af4b7-350d-4fe2-80cd-2415f17936b4"/><linearGradient id="aeb9a5d2-1114-46f9-8ac6-3676e3d1e747" x1="13.53" y1="32.88" x2="13.53" y2="27.34" xlink:href="#064af4b7-350d-4fe2-80cd-2415f17936b4"/><linearGradient id="c7c1ccb2-0e27-44bb-8cd7-c85eff596787" x1="17.86" y1="32.96" x2="17.86" y2="27.27" xlink:href="#064af4b7-350d-4fe2-80cd-2415f17936b4"/><linearGradient id="19f01abc-7f40-4afa-bbc4-3b303973e891" x1="23.38" y1="32.88" x2="23.38" y2="27.34" xlink:href="#064af4b7-350d-4fe2-80cd-2415f17936b4"/><linearGradient id="1ec58d46-364c-4ea0-aea4-2be60e0f6671" x1="29.32" y1="32.96" x2="29.32" y2="27.27" xlink:href="#064af4b7-350d-4fe2-80cd-2415f17936b4"/><linearGradient id="5e51706a-b929-4c66-8107-4ab81800a973" x1="10.56" y1="23.18" x2="7.46" y2="1.44" xlink:href="#064af4b7-350d-4fe2-80cd-2415f17936b4"/><linearGradient id="971209dc-fb89-4d77-8666-58cefe74a66c" x1="27.56" y1="20.76" x2="24.47" y2="-0.98" xlink:href="#064af4b7-350d-4fe2-80cd-2415f17936b4"/></defs><title>UI Masclapp</title><g id="f51f3dae-3ef8-4f08-ba2a-2a7395704745" data-name="Tareas"><path d="M3.37,33a2.79,2.79,0,0,1-1-.16,1.89,1.89,0,0,1-.7-0.46,1.82,1.82,0,0,1-.41-0.7,2.83,2.83,0,0,1-.13-0.89V27.34H2.37v3.34a1.88,1.88,0,0,0,.08.57,1.06,1.06,0,0,0,.21.38,0.74,0.74,0,0,0,.32.21,1.26,1.26,0,0,0,.41.06,1,1,0,0,0,.74-0.28,1.31,1.31,0,0,0,.28-1V27.34H5.66v3.45a2.81,2.81,0,0,1-.14.9,1.83,1.83,0,0,1-.42.7,1.86,1.86,0,0,1-.71.45A3,3,0,0,1,3.37,33Z" style="fill:url(#064af4b7-350d-4fe2-80cd-2415f17936b4)"/><path d="M10.58,32.88Q10,31.93,9.42,31a19.08,19.08,0,0,0-1.33-1.75v3.63H6.86V27.34h1Q8.14,27.6,8.46,28t0.65,0.82q0.33,0.44.66,0.9l0.62,0.9V27.34h1.24v5.54h-1Z" style="fill:url(#de32b69d-0961-4971-a642-fab3b68977dd)"/><path d="M12.9,27.34h1.25v5.54H12.9V27.34Z" style="fill:url(#aeb9a5d2-1114-46f9-8ac6-3676e3d1e747)"/><path d="M20.29,30.11a3.26,3.26,0,0,1-.22,1.26,2.33,2.33,0,0,1-.64.89,2.73,2.73,0,0,1-1,.53A4.66,4.66,0,0,1,17.1,33l-0.78,0a6.42,6.42,0,0,1-.88-0.12v-5.4a7.25,7.25,0,0,1,.9-0.11l0.8,0a4.86,4.86,0,0,1,1.29.16,2.67,2.67,0,0,1,1,.5,2.25,2.25,0,0,1,.64.88A3.35,3.35,0,0,1,20.29,30.11Zm-3.61,1.76h0.48a1.84,1.84,0,0,0,1.39-.47,1.81,1.81,0,0,0,.45-1.3,1.83,1.83,0,0,0-.43-1.32,1.83,1.83,0,0,0-1.37-.45H16.94l-0.26,0v3.5Z" style="fill:url(#c7c1ccb2-0e27-44bb-8cd7-c85eff596787)"/><path d="M24.85,32.88l-0.2-.59-0.21-.61H22.27l-0.21.61-0.2.59h-1.3q0.31-.9.59-1.66t0.55-1.43q0.27-.67.53-1.28t0.54-1.18H24q0.27,0.58.54,1.18T25,29.8q0.27,0.67.55,1.43t0.59,1.66H24.85Zm-1.5-4.29-0.12.33L23,29.4l-0.23.6-0.26.69h1.59L23.89,30q-0.12-.33-0.23-0.6l-0.19-.48Z" style="fill:url(#19f01abc-7f40-4afa-bbc4-3b303973e891)"/><path d="M31.75,30.11a3.26,3.26,0,0,1-.22,1.26,2.33,2.33,0,0,1-.64.89,2.73,2.73,0,0,1-1,.53,4.66,4.66,0,0,1-1.33.18l-0.78,0a6.42,6.42,0,0,1-.88-0.12v-5.4a7.25,7.25,0,0,1,.9-0.11l0.8,0a4.86,4.86,0,0,1,1.29.16,2.67,2.67,0,0,1,1,.5,2.25,2.25,0,0,1,.64.88A3.35,3.35,0,0,1,31.75,30.11Zm-3.61,1.76h0.48A1.84,1.84,0,0,0,30,31.41a1.81,1.81,0,0,0,.45-1.3,1.56,1.56,0,0,0-1.8-1.77H28.4l-0.26,0v3.5Z" style="fill:url(#1ec58d46-364c-4ea0-aea4-2be60e0f6671)"/><path d="M2.43,5.69q0.93-.38,1.93-0.88t2-1.08q1-.59,1.83-1.25A12.61,12.61,0,0,0,9.74,1.1h3.32V23.21H8.3V7.29A14.53,14.53,0,0,1,6.16,8.45Q5,9,3.87,9.36Z" style="fill:url(#5e51706a-b929-4c66-8107-4ab81800a973)"/><path d="M31.85,7.06a7.32,7.32,0,0,1-.46,2.68,5.76,5.76,0,0,1-1.28,2,5.61,5.61,0,0,1-2,1.26,7.34,7.34,0,0,1-5,0,5.78,5.78,0,0,1-2-1.26,5.63,5.63,0,0,1-1.29-2,7.3,7.3,0,0,1-.46-2.68,7.52,7.52,0,0,1,.46-2.73,5.76,5.76,0,0,1,1.29-2,5.66,5.66,0,0,1,2-1.28,7.33,7.33,0,0,1,5,0,5.5,5.5,0,0,1,2,1.28,5.9,5.9,0,0,1,1.28,2A7.54,7.54,0,0,1,31.85,7.06Zm-3.64,0a3.88,3.88,0,0,0-.67-2.41,2.26,2.26,0,0,0-1.91-.88,2.32,2.32,0,0,0-1.92.88A3.76,3.76,0,0,0,23,7.06a3.65,3.65,0,0,0,.69,2.31,2.31,2.31,0,0,0,1.93.88,2.26,2.26,0,0,0,1.91-.88A3.71,3.71,0,0,0,28.21,7.06Z" style="fill:url(#971209dc-fb89-4d77-8666-58cefe74a66c)"/></g></svg>