<svg id="e628c6b8-0f84-40c4-af0a-4eb15a53b7e6" data-name="Capa 1" xmlns="http://www.w3.org/2000/svg" xmlns:xlink="http://www.w3.org/1999/xlink" viewBox="0 0 31.23 33.01"><defs><linearGradient id="5190b0d0-faa9-4d9e-b5b8-ee8ff31e5ab6" x1="2.5" y1="32.58" x2="2.5" y2="26.92" gradientUnits="userSpaceOnUse"><stop offset="0" stop-color="#e9ebed"/><stop offset="0" stop-color="#e8eaec"/><stop offset="1" stop-color="#d1d4d9"/></linearGradient><linearGradient id="95dc3716-aaf8-4af8-96ba-9a39f89f833d" x1="8.36" y1="32.47" x2="8.36" y2="26.92" xlink:href="#5190b0d0-faa9-4d9e-b5b8-ee8ff31e5ab6"/><linearGradient id="9ebe2978-e194-42f9-9419-ae36e267ddc0" x1="12.64" y1="32.47" x2="12.64" y2="26.92" xlink:href="#5190b0d0-faa9-4d9e-b5b8-ee8ff31e5ab6"/><linearGradient id="ca84a5cb-0d03-4560-989b-f5f51d0956a9" x1="16.98" y1="32.54" x2="16.98" y2="26.86" xlink:href="#5190b0d0-faa9-4d9e-b5b8-ee8ff31e5ab6"/><linearGradient id="0c1afae4-ffd6-4cef-a676-543573f38a13" x1="22.49" y1="32.47" x2="22.49" y2="26.92" xlink:href="#5190b0d0-faa9-4d9e-b5b8-ee8ff31e5ab6"/><linearGradient id="a0e86832-98bf-404b-ade9-a1241a49f462" x1="28.44" y1="32.54" x2="28.44" y2="26.86" xlink:href="#5190b0d0-faa9-4d9e-b5b8-ee8ff31e5ab6"/><linearGradient id="da843474-2ebc-43d3-aca3-2b0d6fcec5f8" x1="8.12" y1="22.79" x2="8.12" y2="0.17" xlink:href="#5190b0d0-faa9-4d9e-b5b8-ee8ff31e5ab6"/><linearGradient id="dd17cf43-4f08-48a1-9c51-5aaabbd23ad1" x1="24.73" y1="13.03" x2="24.73" y2="0.17" xlink:href="#5190b0d0-faa9-4d9e-b5b8-ee8ff31e5ab6"/></defs><title>UI Masclapp</title><g id="50e4bc8c-4bab-4e36-836b-663868f883a4" data-name="Tareas"><path d="M2.48,32.58a2.79,2.79,0,0,1-1-.16A1.89,1.89,0,0,1,.78,32a1.82,1.82,0,0,1-.41-0.7,2.83,2.83,0,0,1-.13-0.89V26.92H1.48v3.34a1.88,1.88,0,0,0,.08.57,1.06,1.06,0,0,0,.21.38,0.74,0.74,0,0,0,.32.21,1.26,1.26,0,0,0,.41.06,1,1,0,0,0,.74-0.28,1.31,1.31,0,0,0,.28-1V26.92H4.77v3.45a2.81,2.81,0,0,1-.14.9,1.83,1.83,0,0,1-.42.7,1.86,1.86,0,0,1-.71.45A3,3,0,0,1,2.48,32.58Z" style="fill:url(#5190b0d0-faa9-4d9e-b5b8-ee8ff31e5ab6)"/><path d="M9.69,32.47q-0.54-1-1.16-1.88A19.08,19.08,0,0,0,7.2,28.83v3.63H6V26.92H7q0.26,0.26.58,0.65t0.65,0.82q0.33,0.44.66,0.9l0.62,0.9V26.92h1.24v5.54h-1Z" style="fill:url(#95dc3716-aaf8-4af8-96ba-9a39f89f833d)"/><path d="M12,26.92h1.25v5.54H12V26.92Z" style="fill:url(#9ebe2978-e194-42f9-9419-ae36e267ddc0)"/><path d="M19.4,29.69a3.26,3.26,0,0,1-.22,1.26,2.33,2.33,0,0,1-.64.89,2.73,2.73,0,0,1-1,.53,4.66,4.66,0,0,1-1.33.18l-0.78,0a6.42,6.42,0,0,1-.88-0.12V27a7.25,7.25,0,0,1,.9-0.11l0.8,0a4.86,4.86,0,0,1,1.29.16,2.67,2.67,0,0,1,1,.5,2.25,2.25,0,0,1,.64.88A3.35,3.35,0,0,1,19.4,29.69ZM15.8,31.45h0.48A1.84,1.84,0,0,0,17.66,31a1.81,1.81,0,0,0,.45-1.3,1.83,1.83,0,0,0-.43-1.32,1.83,1.83,0,0,0-1.37-.45H16.05l-0.26,0v3.5Z" style="fill:url(#ca84a5cb-0d03-4560-989b-f5f51d0956a9)"/><path d="M24,32.47l-0.2-.59-0.21-.61H21.39l-0.21.61-0.2.59h-1.3q0.31-.9.59-1.66t0.55-1.43q0.27-.67.53-1.28t0.54-1.18h1.18q0.27,0.58.54,1.18t0.53,1.28q0.27,0.67.55,1.43t0.59,1.66H24Zm-1.5-4.29-0.12.33L22.16,29l-0.23.6-0.26.69h1.59L23,29.58q-0.12-.33-0.23-0.6L22.6,28.5Z" style="fill:url(#0c1afae4-ffd6-4cef-a676-543573f38a13)"/><path d="M30.87,29.69a3.26,3.26,0,0,1-.22,1.26,2.33,2.33,0,0,1-.64.89,2.73,2.73,0,0,1-1,.53,4.66,4.66,0,0,1-1.33.18l-0.78,0A6.42,6.42,0,0,1,26,32.39V27a7.25,7.25,0,0,1,.9-0.11l0.8,0A4.86,4.86,0,0,1,29,27a2.67,2.67,0,0,1,1,.5,2.25,2.25,0,0,1,.64.88A3.35,3.35,0,0,1,30.87,29.69Zm-3.61,1.76h0.48A1.84,1.84,0,0,0,29.13,31a1.81,1.81,0,0,0,.45-1.3,1.56,1.56,0,0,0-1.8-1.77H27.52l-0.26,0v3.5Z" style="fill:url(#a0e86832-98bf-404b-ade9-a1241a49f462)"/><path d="M15.14,6.49a5.85,5.85,0,0,1-.48,2.33A10.75,10.75,0,0,1,13.41,11a17.47,17.47,0,0,1-1.72,2q-1,1-1.88,1.82-0.48.45-1,1T7.7,16.92q-0.51.57-.91,1.07a2.65,2.65,0,0,0-.49.81h9.51v4H1.07A5.1,5.1,0,0,1,1,21.9V21.13a7.71,7.71,0,0,1,.49-2.81,10.51,10.51,0,0,1,1.29-2.38,14.94,14.94,0,0,1,1.8-2.06l2-1.92L8,10.59A15.83,15.83,0,0,0,9.2,9.31,5.81,5.81,0,0,0,10,8.06a3,3,0,0,0,.29-1.26,2.27,2.27,0,0,0-.8-2,3.3,3.3,0,0,0-2-.57,4.73,4.73,0,0,0-1.61.27,8.26,8.26,0,0,0-1.37.64,8.6,8.6,0,0,0-1.07.73Q3,6.26,2.79,6.49L0.43,3.17A12.06,12.06,0,0,1,3.7,1a9.59,9.59,0,0,1,4-.85,11.12,11.12,0,0,1,3.35.45,6.26,6.26,0,0,1,2.31,1.26,4.89,4.89,0,0,1,1.34,2A7.56,7.56,0,0,1,15.14,6.49Z" style="fill:url(#da843474-2ebc-43d3-aca3-2b0d6fcec5f8)"/><path d="M31,6.64a7.32,7.32,0,0,1-.46,2.68,5.76,5.76,0,0,1-1.28,2,5.61,5.61,0,0,1-2,1.26,7.34,7.34,0,0,1-5,0,5.78,5.78,0,0,1-2-1.26,5.63,5.63,0,0,1-1.29-2,7.3,7.3,0,0,1-.46-2.68A7.52,7.52,0,0,1,19,3.92a5.76,5.76,0,0,1,1.29-2,5.66,5.66,0,0,1,2-1.28,7.33,7.33,0,0,1,5,0,5.5,5.5,0,0,1,2,1.28,5.9,5.9,0,0,1,1.28,2A7.54,7.54,0,0,1,31,6.64Zm-3.64,0a3.88,3.88,0,0,0-.67-2.41,2.26,2.26,0,0,0-1.91-.88,2.32,2.32,0,0,0-1.92.88,3.76,3.76,0,0,0-.7,2.41A3.65,3.65,0,0,0,22.81,9a2.31,2.31,0,0,0,1.93.88A2.26,2.26,0,0,0,26.66,9,3.71,3.71,0,0,0,27.33,6.64Z" style="fill:url(#dd17cf43-4f08-48a1-9c51-5aaabbd23ad1)"/></g></svg>