<svg id="a7bcb00c-f772-498e-8dd5-9f53435e2440" data-name="Capa 1" xmlns="http://www.w3.org/2000/svg" xmlns:xlink="http://www.w3.org/1999/xlink" viewBox="0 0 31.23 33.01"><defs><linearGradient id="9cfd12d2-fc00-4ed2-a0df-dc319d19e5b6" x1="2.5" y1="32.58" x2="2.5" y2="26.92" gradientUnits="userSpaceOnUse"><stop offset="0" stop-color="#e9ebed"/><stop offset="0" stop-color="#e8eaec"/><stop offset="1" stop-color="#d1d4d9"/></linearGradient><linearGradient id="2852b0f0-0e40-4aba-a857-8d12eccc4522" x1="8.36" y1="32.47" x2="8.36" y2="26.92" xlink:href="#9cfd12d2-fc00-4ed2-a0df-dc319d19e5b6"/><linearGradient id="14cf2647-a395-4e36-bf89-960e6d449e8e" x1="12.64" y1="32.47" x2="12.64" y2="26.92" xlink:href="#9cfd12d2-fc00-4ed2-a0df-dc319d19e5b6"/><linearGradient id="74717c74-49bd-42e6-9f59-add58e2136f8" x1="16.98" y1="32.54" x2="16.98" y2="26.86" xlink:href="#9cfd12d2-fc00-4ed2-a0df-dc319d19e5b6"/><linearGradient id="167ca709-7b23-40d5-b796-df9da1a98005" x1="22.49" y1="32.47" x2="22.49" y2="26.92" xlink:href="#9cfd12d2-fc00-4ed2-a0df-dc319d19e5b6"/><linearGradient id="62875a58-2e42-4dc6-83e7-e6ed3226771d" x1="28.44" y1="32.54" x2="28.44" y2="26.86" xlink:href="#9cfd12d2-fc00-4ed2-a0df-dc319d19e5b6"/><linearGradient id="6d403481-4e84-47cc-b3a4-3f4c7d4d0ba7" x1="7.78" y1="23.27" x2="7.78" y2="0.17" xlink:href="#9cfd12d2-fc00-4ed2-a0df-dc319d19e5b6"/><linearGradient id="9e24b73a-9e64-4fd7-8e33-9b92d8a914fe" x1="24.73" y1="13.03" x2="24.73" y2="0.17" xlink:href="#9cfd12d2-fc00-4ed2-a0df-dc319d19e5b6"/></defs><title>UI Masclapp</title><g id="3dd05091-9c18-4451-9fa1-c4d56215d744" data-name="Tareas"><path d="M2.48,32.58a2.79,2.79,0,0,1-1-.16A1.89,1.89,0,0,1,.78,32a1.82,1.82,0,0,1-.41-0.7,2.83,2.83,0,0,1-.13-0.89V26.92H1.48v3.34a1.88,1.88,0,0,0,.08.57,1.06,1.06,0,0,0,.21.38,0.74,0.74,0,0,0,.32.21,1.26,1.26,0,0,0,.41.06,1,1,0,0,0,.74-0.28,1.31,1.31,0,0,0,.28-1V26.92H4.77v3.45a2.81,2.81,0,0,1-.14.9,1.83,1.83,0,0,1-.42.7,1.86,1.86,0,0,1-.71.45A3,3,0,0,1,2.48,32.58Z" style="fill:url(#9cfd12d2-fc00-4ed2-a0df-dc319d19e5b6)"/><path d="M9.69,32.47q-0.54-1-1.16-1.88A19.08,19.08,0,0,0,7.2,28.83v3.63H6V26.92H7q0.26,0.26.58,0.65t0.65,0.82q0.33,0.44.66,0.9l0.62,0.9V26.92h1.24v5.54h-1Z" style="fill:url(#2852b0f0-0e40-4aba-a857-8d12eccc4522)"/><path d="M12,26.92h1.25v5.54H12V26.92Z" style="fill:url(#14cf2647-a395-4e36-bf89-960e6d449e8e)"/><path d="M19.4,29.69a3.26,3.26,0,0,1-.22,1.26,2.33,2.33,0,0,1-.64.89,2.73,2.73,0,0,1-1,.53,4.66,4.66,0,0,1-1.33.18l-0.78,0a6.42,6.42,0,0,1-.88-0.12V27a7.25,7.25,0,0,1,.9-0.11l0.8,0a4.86,4.86,0,0,1,1.29.16,2.67,2.67,0,0,1,1,.5,2.25,2.25,0,0,1,.64.88A3.35,3.35,0,0,1,19.4,29.69Zm-3.61,1.76h0.48A1.84,1.84,0,0,0,17.66,31a1.81,1.81,0,0,0,.45-1.3,1.83,1.83,0,0,0-.43-1.32,1.83,1.83,0,0,0-1.37-.45H16.05l-0.26,0v3.5Z" style="fill:url(#74717c74-49bd-42e6-9f59-add58e2136f8)"/><path d="M24,32.47l-0.2-.59-0.21-.61H21.39l-0.21.61-0.2.59h-1.3q0.31-.9.59-1.66t0.55-1.43q0.27-.67.53-1.28t0.54-1.18h1.18q0.27,0.58.54,1.18t0.53,1.28q0.27,0.67.55,1.43t0.59,1.66H24Zm-1.5-4.29-0.12.33L22.16,29l-0.23.6-0.26.69h1.59L23,29.58q-0.12-.33-0.23-0.6l-0.19-.48Z" style="fill:url(#167ca709-7b23-40d5-b796-df9da1a98005)"/><path d="M30.87,29.69a3.26,3.26,0,0,1-.22,1.26,2.33,2.33,0,0,1-.64.89,2.73,2.73,0,0,1-1,.53,4.66,4.66,0,0,1-1.33.18l-0.78,0A6.42,6.42,0,0,1,26,32.39V27a7.25,7.25,0,0,1,.9-0.11l0.8,0A4.86,4.86,0,0,1,29,27a2.67,2.67,0,0,1,1,.5,2.25,2.25,0,0,1,.64.88A3.35,3.35,0,0,1,30.87,29.69Zm-3.61,1.76h0.48A1.84,1.84,0,0,0,29.13,31a1.81,1.81,0,0,0,.45-1.3,1.56,1.56,0,0,0-1.8-1.77H27.52l-0.26,0v3.5Z" style="fill:url(#62875a58-2e42-4dc6-83e7-e6ed3226771d)"/><path d="M6.59,23.27a15.79,15.79,0,0,1-1.82-.11q-1-.11-1.85-0.3t-1.63-.41A9.49,9.49,0,0,1,.14,22l0.92-4q0.83,0.35,2.12.75a11,11,0,0,0,3.21.4,5.08,5.08,0,0,0,3.22-.83,2.73,2.73,0,0,0,1-2.23,2.7,2.7,0,0,0-.37-1.45,2.81,2.81,0,0,0-1-1,4.46,4.46,0,0,0-1.52-.51,11.58,11.58,0,0,0-1.87-.14H4V9.26H6.14A7.08,7.08,0,0,0,7.5,9.13,3.63,3.63,0,0,0,8.66,8.7a2.26,2.26,0,0,0,.81-0.83,2.62,2.62,0,0,0,.3-1.32A2.09,2.09,0,0,0,9.52,5.5a2.31,2.31,0,0,0-.65-0.73,2.85,2.85,0,0,0-.92-0.43,4.05,4.05,0,0,0-1.07-.14,7.51,7.51,0,0,0-2.54.42,10.59,10.59,0,0,0-2.12,1L0.52,2.15Q1,1.83,1.72,1.48A11.69,11.69,0,0,1,3.24.84,13.88,13.88,0,0,1,5,.36,10,10,0,0,1,7,.17a10.91,10.91,0,0,1,3.37.46,6.34,6.34,0,0,1,2.35,1.31,5.29,5.29,0,0,1,1.37,2,6.68,6.68,0,0,1,.45,2.47,4.88,4.88,0,0,1-.73,2.53,4.85,4.85,0,0,1-2,1.86,5.74,5.74,0,0,1,2.66,2.09,5.82,5.82,0,0,1,.94,3.34A7.64,7.64,0,0,1,14.91,19a5.69,5.69,0,0,1-1.6,2.24,7.62,7.62,0,0,1-2.76,1.47A13.3,13.3,0,0,1,6.59,23.27Z" style="fill:url(#6d403481-4e84-47cc-b3a4-3f4c7d4d0ba7)"/><path d="M31,6.64a7.32,7.32,0,0,1-.46,2.68,5.76,5.76,0,0,1-1.28,2,5.61,5.61,0,0,1-2,1.26,7.34,7.34,0,0,1-5,0,5.78,5.78,0,0,1-2-1.26,5.63,5.63,0,0,1-1.29-2,7.3,7.3,0,0,1-.46-2.68A7.52,7.52,0,0,1,19,3.92a5.76,5.76,0,0,1,1.29-2,5.66,5.66,0,0,1,2-1.28,7.33,7.33,0,0,1,5,0,5.5,5.5,0,0,1,2,1.28,5.9,5.9,0,0,1,1.28,2A7.54,7.54,0,0,1,31,6.64Zm-3.64,0a3.88,3.88,0,0,0-.67-2.41,2.26,2.26,0,0,0-1.91-.88,2.32,2.32,0,0,0-1.92.88,3.76,3.76,0,0,0-.7,2.41A3.65,3.65,0,0,0,22.81,9a2.31,2.31,0,0,0,1.93.88A2.26,2.26,0,0,0,26.66,9,3.71,3.71,0,0,0,27.33,6.64Z" style="fill:url(#9e24b73a-9e64-4fd7-8e33-9b92d8a914fe)"/></g></svg>