<svg id="a677f5d0-8bf1-4060-85d3-eb0de8dbfb2c" data-name="Capa 1" xmlns="http://www.w3.org/2000/svg" xmlns:xlink="http://www.w3.org/1999/xlink" viewBox="0 0 31.23 33.01"><defs><linearGradient id="448f8c57-b61d-4dbc-83e7-f33ba092e42e" x1="2.5" y1="32.58" x2="2.5" y2="26.92" gradientUnits="userSpaceOnUse"><stop offset="0" stop-color="#e9ebed"/><stop offset="0" stop-color="#e8eaec"/><stop offset="1" stop-color="#d1d4d9"/></linearGradient><linearGradient id="4a57ef37-d999-4fa5-b048-c5d5d519110a" x1="8.36" y1="32.47" x2="8.36" y2="26.92" xlink:href="#448f8c57-b61d-4dbc-83e7-f33ba092e42e"/><linearGradient id="6293d469-610a-4c74-819a-d0391b2272fa" x1="12.64" y1="32.47" x2="12.64" y2="26.92" xlink:href="#448f8c57-b61d-4dbc-83e7-f33ba092e42e"/><linearGradient id="60ae87be-6e76-4571-abd6-50c2e1b11e2e" x1="16.98" y1="32.54" x2="16.98" y2="26.86" xlink:href="#448f8c57-b61d-4dbc-83e7-f33ba092e42e"/><linearGradient id="e203c7a2-34d8-46a6-819c-119d58159f6d" x1="22.49" y1="32.47" x2="22.49" y2="26.92" xlink:href="#448f8c57-b61d-4dbc-83e7-f33ba092e42e"/><linearGradient id="c1c74641-80f4-4330-9376-f6b59998250c" x1="28.44" y1="32.54" x2="28.44" y2="26.86" xlink:href="#448f8c57-b61d-4dbc-83e7-f33ba092e42e"/><linearGradient id="1df37bae-ef25-4cae-9acc-cb3ffddb0563" x1="8.23" y1="22.79" x2="8.23" y2="0.68" xlink:href="#448f8c57-b61d-4dbc-83e7-f33ba092e42e"/><linearGradient id="d6a94496-c27a-4f69-975f-2e38774e9519" x1="24.73" y1="13.03" x2="24.73" y2="0.17" xlink:href="#448f8c57-b61d-4dbc-83e7-f33ba092e42e"/></defs><title>UI Masclapp</title><g id="58d40f11-9674-4552-a738-d2ffd458f384" data-name="Tareas"><path d="M2.48,32.58a2.79,2.79,0,0,1-1-.16A1.89,1.89,0,0,1,.78,32a1.82,1.82,0,0,1-.41-0.7,2.83,2.83,0,0,1-.13-0.89V26.92H1.48v3.34a1.88,1.88,0,0,0,.08.57,1.06,1.06,0,0,0,.21.38,0.74,0.74,0,0,0,.32.21,1.26,1.26,0,0,0,.41.06,1,1,0,0,0,.74-0.28,1.31,1.31,0,0,0,.28-1V26.92H4.77v3.45a2.81,2.81,0,0,1-.14.9,1.83,1.83,0,0,1-.42.7,1.86,1.86,0,0,1-.71.45A3,3,0,0,1,2.48,32.58Z" style="fill:url(#448f8c57-b61d-4dbc-83e7-f33ba092e42e)"/><path d="M9.69,32.47q-0.54-1-1.16-1.88A19.08,19.08,0,0,0,7.2,28.83v3.63H6V26.92H7q0.26,0.26.58,0.65t0.65,0.82q0.33,0.44.66,0.9l0.62,0.9V26.92h1.24v5.54h-1Z" style="fill:url(#4a57ef37-d999-4fa5-b048-c5d5d519110a)"/><path d="M12,26.92h1.25v5.54H12V26.92Z" style="fill:url(#6293d469-610a-4c74-819a-d0391b2272fa)"/><path d="M19.4,29.69a3.26,3.26,0,0,1-.22,1.26,2.33,2.33,0,0,1-.64.89,2.73,2.73,0,0,1-1,.53,4.66,4.66,0,0,1-1.33.18l-0.78,0a6.42,6.42,0,0,1-.88-0.12V27a7.25,7.25,0,0,1,.9-0.11l0.8,0a4.86,4.86,0,0,1,1.29.16,2.67,2.67,0,0,1,1,.5,2.25,2.25,0,0,1,.64.88A3.35,3.35,0,0,1,19.4,29.69Zm-3.61,1.76h0.48A1.84,1.84,0,0,0,17.66,31a1.81,1.81,0,0,0,.45-1.3,1.83,1.83,0,0,0-.43-1.32,1.83,1.83,0,0,0-1.37-.45H16.05l-0.26,0v3.5Z" style="fill:url(#60ae87be-6e76-4571-abd6-50c2e1b11e2e)"/><path d="M24,32.47l-0.2-.59-0.21-.61H21.39l-0.21.61-0.2.59h-1.3q0.31-.9.59-1.66t0.55-1.43q0.27-.67.53-1.28t0.54-1.18h1.18q0.27,0.58.54,1.18t0.53,1.28q0.27,0.67.55,1.43t0.59,1.66H24Zm-1.5-4.29-0.12.33L22.16,29l-0.23.6-0.26.69h1.59L23,29.58q-0.12-.33-0.23-0.6l-0.19-.48Z" style="fill:url(#e203c7a2-34d8-46a6-819c-119d58159f6d)"/><path d="M30.87,29.69a3.26,3.26,0,0,1-.22,1.26,2.33,2.33,0,0,1-.64.89,2.73,2.73,0,0,1-1,.53,4.66,4.66,0,0,1-1.33.18l-0.78,0A6.42,6.42,0,0,1,26,32.39V27a7.25,7.25,0,0,1,.9-0.11l0.8,0A4.86,4.86,0,0,1,29,27a2.67,2.67,0,0,1,1,.5,2.25,2.25,0,0,1,.64.88A3.35,3.35,0,0,1,30.87,29.69Zm-3.61,1.76h0.48A1.84,1.84,0,0,0,29.13,31a1.81,1.81,0,0,0,.45-1.3,1.56,1.56,0,0,0-1.8-1.77H27.52l-0.26,0v3.5Z" style="fill:url(#c1c74641-80f4-4330-9376-f6b59998250c)"/><path d="M14.15,0.68V14h2.36v3.89H14.15v4.95H9.49V17.84H-0.05V14.37Q0.65,13,1.7,11.19T4,7.55Q5.34,5.69,6.78,3.9A40,40,0,0,1,9.65.68h4.5ZM9.49,6.49Q8.25,8.11,6.84,10A24.41,24.41,0,0,0,4.48,14h5V6.49Z" style="fill:url(#1df37bae-ef25-4cae-9acc-cb3ffddb0563)"/><path d="M31,6.64a7.32,7.32,0,0,1-.46,2.68,5.76,5.76,0,0,1-1.28,2,5.61,5.61,0,0,1-2,1.26,7.34,7.34,0,0,1-5,0,5.78,5.78,0,0,1-2-1.26,5.63,5.63,0,0,1-1.29-2,7.3,7.3,0,0,1-.46-2.68A7.52,7.52,0,0,1,19,3.92a5.76,5.76,0,0,1,1.29-2,5.66,5.66,0,0,1,2-1.28,7.33,7.33,0,0,1,5,0,5.5,5.5,0,0,1,2,1.28,5.9,5.9,0,0,1,1.28,2A7.54,7.54,0,0,1,31,6.64Zm-3.64,0a3.88,3.88,0,0,0-.67-2.41,2.26,2.26,0,0,0-1.91-.88,2.32,2.32,0,0,0-1.92.88,3.76,3.76,0,0,0-.7,2.41A3.65,3.65,0,0,0,22.81,9a2.31,2.31,0,0,0,1.93.88A2.26,2.26,0,0,0,26.66,9,3.71,3.71,0,0,0,27.33,6.64Z" style="fill:url(#d6a94496-c27a-4f69-975f-2e38774e9519)"/></g></svg>