<svg id="a13dda3c-5711-48c2-a8d2-d1b467e0e480" data-name="Capa 1" xmlns="http://www.w3.org/2000/svg" xmlns:xlink="http://www.w3.org/1999/xlink" viewBox="0 0 31.23 33.01"><defs><linearGradient id="458be694-22ae-4a96-a5ae-3e93539a8aff" x1="2.52" y1="32.59" x2="2.52" y2="26.93" gradientUnits="userSpaceOnUse"><stop offset="0" stop-color="#e9ebed"/><stop offset="0" stop-color="#e8eaec"/><stop offset="1" stop-color="#d1d4d9"/></linearGradient><linearGradient id="aaf896ce-2a1a-4d4b-9a98-bdec4ff98d85" x1="8.37" y1="32.48" x2="8.37" y2="26.93" xlink:href="#458be694-22ae-4a96-a5ae-3e93539a8aff"/><linearGradient id="fe75ba07-cc84-4037-aade-cc20b82e3be4" x1="12.66" y1="32.48" x2="12.66" y2="26.93" xlink:href="#458be694-22ae-4a96-a5ae-3e93539a8aff"/><linearGradient id="940ec1cb-f830-47c6-a008-05cfe2c112f4" x1="16.99" y1="32.55" x2="16.99" y2="26.87" xlink:href="#458be694-22ae-4a96-a5ae-3e93539a8aff"/><linearGradient id="06f5681d-20c0-4382-91a0-c8258b99c89b" x1="22.51" y1="32.48" x2="22.51" y2="26.93" xlink:href="#458be694-22ae-4a96-a5ae-3e93539a8aff"/><linearGradient id="a9a683c8-1d82-4f62-87a2-a8d2b517a2a0" x1="28.46" y1="32.55" x2="28.46" y2="26.87" xlink:href="#458be694-22ae-4a96-a5ae-3e93539a8aff"/><linearGradient id="c1ef9b48-d52a-4705-b0d2-1760837e4077" x1="8.05" y1="23.28" x2="8.05" y2="0.69" xlink:href="#458be694-22ae-4a96-a5ae-3e93539a8aff"/><linearGradient id="f17bfda7-6194-4159-b3b4-0bea7eadb038" x1="24.74" y1="13.04" x2="24.74" y2="0.18" xlink:href="#458be694-22ae-4a96-a5ae-3e93539a8aff"/></defs><title>UI Masclapp</title><g id="c5719325-4bfe-48a0-b05f-59ec1e10192b" data-name="Tareas"><path d="M2.5,32.59a2.79,2.79,0,0,1-1-.16A1.89,1.89,0,0,1,.79,32a1.82,1.82,0,0,1-.41-0.7,2.83,2.83,0,0,1-.13-0.89V26.93H1.5v3.34a1.88,1.88,0,0,0,.08.57,1.06,1.06,0,0,0,.21.38,0.74,0.74,0,0,0,.32.21,1.26,1.26,0,0,0,.41.06,1,1,0,0,0,.74-0.28,1.31,1.31,0,0,0,.28-1V26.93H4.79v3.45a2.81,2.81,0,0,1-.14.9,1.83,1.83,0,0,1-.42.7,1.86,1.86,0,0,1-.71.45A3,3,0,0,1,2.5,32.59Z" style="fill:url(#458be694-22ae-4a96-a5ae-3e93539a8aff)"/><path d="M9.71,32.48q-0.54-1-1.16-1.88a19.08,19.08,0,0,0-1.33-1.75v3.63H6V26.93H7q0.26,0.26.58,0.65T8.24,28.4q0.33,0.44.66,0.9l0.62,0.9V26.93h1.24v5.54h-1Z" style="fill:url(#aaf896ce-2a1a-4d4b-9a98-bdec4ff98d85)"/><path d="M12,26.93h1.25v5.54H12V26.93Z" style="fill:url(#fe75ba07-cc84-4037-aade-cc20b82e3be4)"/><path d="M19.42,29.7A3.26,3.26,0,0,1,19.19,31a2.33,2.33,0,0,1-.64.89,2.73,2.73,0,0,1-1,.53,4.66,4.66,0,0,1-1.33.18l-0.78,0a6.42,6.42,0,0,1-.88-0.12V27a7.25,7.25,0,0,1,.9-0.11l0.8,0a4.86,4.86,0,0,1,1.29.16,2.67,2.67,0,0,1,1,.5,2.25,2.25,0,0,1,.64.88A3.35,3.35,0,0,1,19.42,29.7Zm-3.61,1.76h0.48A1.84,1.84,0,0,0,17.68,31a1.81,1.81,0,0,0,.45-1.3,1.83,1.83,0,0,0-.43-1.32,1.83,1.83,0,0,0-1.37-.45H16.07l-0.26,0v3.5Z" style="fill:url(#940ec1cb-f830-47c6-a008-05cfe2c112f4)"/><path d="M24,32.48l-0.2-.59-0.21-.61H21.4l-0.21.61-0.2.59H19.7q0.31-.9.59-1.66t0.55-1.43q0.27-.67.53-1.28t0.54-1.18H23.1q0.27,0.58.54,1.18t0.53,1.28q0.27,0.67.55,1.43t0.59,1.66H24Zm-1.5-4.29-0.12.33L22.17,29l-0.23.6-0.26.69h1.59L23,29.59q-0.12-.33-0.23-0.6l-0.19-.48Z" style="fill:url(#06f5681d-20c0-4382-91a0-c8258b99c89b)"/><path d="M30.88,29.7A3.26,3.26,0,0,1,30.66,31a2.33,2.33,0,0,1-.64.89,2.73,2.73,0,0,1-1,.53,4.66,4.66,0,0,1-1.33.18l-0.78,0A6.42,6.42,0,0,1,26,32.4V27a7.25,7.25,0,0,1,.9-0.11l0.8,0A4.86,4.86,0,0,1,29,27a2.67,2.67,0,0,1,1,.5,2.25,2.25,0,0,1,.64.88A3.35,3.35,0,0,1,30.88,29.7Zm-3.61,1.76h0.48A1.84,1.84,0,0,0,29.14,31a1.81,1.81,0,0,0,.45-1.3,1.56,1.56,0,0,0-1.8-1.77H27.53l-0.26,0v3.5Z" style="fill:url(#a9a683c8-1d82-4f62-87a2-a8d2b517a2a0)"/><path d="M10.81,16.29a3.23,3.23,0,0,0-.42-1.64A3.11,3.11,0,0,0,9,13.45a10.07,10.07,0,0,0-2.74-.73,30.5,30.5,0,0,0-4.34-.26q0.35-3,.57-6T2.8,0.69h12v4h-8Q6.73,5.83,6.65,6.89T6.47,8.76q4.66,0.32,6.88,2.19a6.41,6.41,0,0,1,2.22,5.19A7.35,7.35,0,0,1,15,19a6.12,6.12,0,0,1-1.63,2.27,7.75,7.75,0,0,1-2.73,1.5,12.3,12.3,0,0,1-3.84.54A15.36,15.36,0,0,1,5,23.17q-0.94-.11-1.82-0.29t-1.58-.37a6.11,6.11,0,0,1-1.08-.38L1.4,18.21a13.87,13.87,0,0,0,2.11.69,12.73,12.73,0,0,0,3.13.33,4.75,4.75,0,0,0,3.19-.88A2.68,2.68,0,0,0,10.81,16.29Z" style="fill:url(#c1ef9b48-d52a-4705-b0d2-1760837e4077)"/><path d="M31,6.65a7.32,7.32,0,0,1-.46,2.68,5.76,5.76,0,0,1-1.28,2,5.61,5.61,0,0,1-2,1.26,7.34,7.34,0,0,1-5,0,5.78,5.78,0,0,1-2-1.26,5.63,5.63,0,0,1-1.29-2,7.3,7.3,0,0,1-.46-2.68A7.52,7.52,0,0,1,19,3.93a5.76,5.76,0,0,1,1.29-2,5.66,5.66,0,0,1,2-1.28,7.33,7.33,0,0,1,5,0,5.5,5.5,0,0,1,2,1.28,5.9,5.9,0,0,1,1.28,2A7.54,7.54,0,0,1,31,6.65Zm-3.64,0a3.88,3.88,0,0,0-.67-2.41,2.26,2.26,0,0,0-1.91-.88,2.32,2.32,0,0,0-1.92.88,3.76,3.76,0,0,0-.7,2.41A3.65,3.65,0,0,0,22.83,9a2.31,2.31,0,0,0,1.93.88A2.26,2.26,0,0,0,26.67,9,3.71,3.71,0,0,0,27.34,6.65Z" style="fill:url(#f17bfda7-6194-4159-b3b4-0bea7eadb038)"/></g></svg>