<svg id="59a90951-f35c-4711-ad52-47e0c164ce8b" data-name="Capa 1" xmlns="http://www.w3.org/2000/svg" xmlns:xlink="http://www.w3.org/1999/xlink" viewBox="0 0 31.23 33.01"><defs><linearGradient id="3ff280db-55a1-4613-b8b6-43c8da2ee4cd" x1="2.52" y1="32.57" x2="2.52" y2="26.91" gradientUnits="userSpaceOnUse"><stop offset="0" stop-color="#e9ebed"/><stop offset="0" stop-color="#e8eaec"/><stop offset="1" stop-color="#d1d4d9"/></linearGradient><linearGradient id="ba5e3cf8-109f-4241-b2aa-cd48ecdeb11f" x1="8.37" y1="32.46" x2="8.37" y2="26.91" xlink:href="#3ff280db-55a1-4613-b8b6-43c8da2ee4cd"/><linearGradient id="ffc4e797-9466-48ed-b358-1cfa1a1e5bfb" x1="12.66" y1="32.46" x2="12.66" y2="26.91" xlink:href="#3ff280db-55a1-4613-b8b6-43c8da2ee4cd"/><linearGradient id="ef9a51fd-faf2-4b62-a39c-14d6907b86ce" x1="16.99" y1="32.53" x2="16.99" y2="26.85" xlink:href="#3ff280db-55a1-4613-b8b6-43c8da2ee4cd"/><linearGradient id="bda2b162-b875-41e4-9dfb-6df971e01e94" x1="22.51" y1="32.46" x2="22.51" y2="26.91" xlink:href="#3ff280db-55a1-4613-b8b6-43c8da2ee4cd"/><linearGradient id="8cc6d28c-2dda-4433-bdcb-6a679640daa7" x1="28.46" y1="32.53" x2="28.46" y2="26.85" xlink:href="#3ff280db-55a1-4613-b8b6-43c8da2ee4cd"/><linearGradient id="5f8ba64e-9b99-4914-a179-dcfca055f9bd" x1="8.42" y1="23.23" x2="8.42" y2="0.51" xlink:href="#3ff280db-55a1-4613-b8b6-43c8da2ee4cd"/><linearGradient id="4d8206e4-0b1c-412c-98db-a6f4cc1e30df" x1="24.74" y1="13.02" x2="24.74" y2="0.16" xlink:href="#3ff280db-55a1-4613-b8b6-43c8da2ee4cd"/></defs><title>UI Masclapp</title><g id="4d2f7eab-b79f-4004-9d63-bb0ca69ad35a" data-name="Tareas"><path d="M2.5,32.57a2.79,2.79,0,0,1-1-.16,1.89,1.89,0,0,1-.7-0.46,1.82,1.82,0,0,1-.41-0.7,2.83,2.83,0,0,1-.13-0.89V26.91H1.5v3.34a1.88,1.88,0,0,0,.08.57,1.06,1.06,0,0,0,.21.38,0.74,0.74,0,0,0,.32.21,1.26,1.26,0,0,0,.41.06,1,1,0,0,0,.74-0.28,1.31,1.31,0,0,0,.28-1V26.91H4.79v3.45a2.81,2.81,0,0,1-.14.9,1.83,1.83,0,0,1-.42.7,1.86,1.86,0,0,1-.71.45A3,3,0,0,1,2.5,32.57Z" style="fill:url(#3ff280db-55a1-4613-b8b6-43c8da2ee4cd)"/><path d="M9.71,32.46q-0.54-1-1.16-1.88a19.08,19.08,0,0,0-1.33-1.75v3.63H6V26.91H7q0.26,0.26.58,0.65t0.65,0.82q0.33,0.44.66,0.9l0.62,0.9V26.91h1.24v5.54h-1Z" style="fill:url(#ba5e3cf8-109f-4241-b2aa-cd48ecdeb11f)"/><path d="M12,26.91h1.25v5.54H12V26.91Z" style="fill:url(#ffc4e797-9466-48ed-b358-1cfa1a1e5bfb)"/><path d="M19.42,29.68a3.26,3.26,0,0,1-.22,1.26,2.33,2.33,0,0,1-.64.89,2.73,2.73,0,0,1-1,.53,4.66,4.66,0,0,1-1.33.18l-0.78,0a6.42,6.42,0,0,1-.88-0.12V27a7.25,7.25,0,0,1,.9-0.11l0.8,0a4.86,4.86,0,0,1,1.29.16,2.67,2.67,0,0,1,1,.5,2.25,2.25,0,0,1,.64.88A3.35,3.35,0,0,1,19.42,29.68Zm-3.61,1.76h0.48A1.84,1.84,0,0,0,17.68,31a1.81,1.81,0,0,0,.45-1.3,1.83,1.83,0,0,0-.43-1.32,1.83,1.83,0,0,0-1.37-.45H16.07l-0.26,0v3.5Z" style="fill:url(#ef9a51fd-faf2-4b62-a39c-14d6907b86ce)"/><path d="M24,32.46l-0.2-.59-0.21-.61H21.4l-0.21.61-0.2.59H19.7q0.31-.9.59-1.66t0.55-1.43q0.27-.67.53-1.28t0.54-1.18H23.1q0.27,0.58.54,1.18t0.53,1.28q0.27,0.67.55,1.43t0.59,1.66H24Zm-1.5-4.29-0.12.33L22.17,29l-0.23.6-0.26.69h1.59L23,29.58q-0.12-.33-0.23-0.6l-0.19-.48Z" style="fill:url(#bda2b162-b875-41e4-9dfb-6df971e01e94)"/><path d="M30.88,29.68a3.26,3.26,0,0,1-.22,1.26,2.33,2.33,0,0,1-.64.89,2.73,2.73,0,0,1-1,.53,4.66,4.66,0,0,1-1.33.18l-0.78,0A6.42,6.42,0,0,1,26,32.38V27a7.25,7.25,0,0,1,.9-0.11l0.8,0A4.86,4.86,0,0,1,29,27a2.67,2.67,0,0,1,1,.5,2.25,2.25,0,0,1,.64.88A3.35,3.35,0,0,1,30.88,29.68Zm-3.61,1.76h0.48A1.84,1.84,0,0,0,29.14,31a1.81,1.81,0,0,0,.45-1.3,1.56,1.56,0,0,0-1.8-1.77H27.53l-0.26,0v3.5Z" style="fill:url(#8cc6d28c-2dda-4433-bdcb-6a679640daa7)"/><path d="M8.68,8.68a9.85,9.85,0,0,1,3.53.56,6.51,6.51,0,0,1,2.38,1.52A5.73,5.73,0,0,1,15.92,13a8.72,8.72,0,0,1,.42,2.71,8,8,0,0,1-.46,2.62,7.21,7.21,0,0,1-3.8,4.21,7.82,7.82,0,0,1-3.43.7,7.4,7.4,0,0,1-6.06-2.52,10.64,10.64,0,0,1-2.07-7,15,15,0,0,1,1-5.65A11.13,11.13,0,0,1,4.32,4,12.31,12.31,0,0,1,8.76,1.42,18.84,18.84,0,0,1,14.61.51q0.06,1,.13,1.93t0.13,2a18.29,18.29,0,0,0-3,.3,10.13,10.13,0,0,0-2.58.85A7.06,7.06,0,0,0,7.21,7,6.36,6.36,0,0,0,5.87,9.25,5.92,5.92,0,0,1,7.3,8.8,8,8,0,0,1,8.68,8.68Zm-0.61,3.7a9.54,9.54,0,0,0-1.5.13,4.44,4.44,0,0,0-1.24.35c0,0.08,0,.21,0,0.38s0,0.32,0,.45a13.91,13.91,0,0,0,.16,2.17A6.06,6.06,0,0,0,6,17.64a3.06,3.06,0,0,0,1,1.2,2.79,2.79,0,0,0,1.6.43A2.6,2.6,0,0,0,10,18.94a3.09,3.09,0,0,0,.93-0.85A3.6,3.6,0,0,0,11.44,17a4.4,4.4,0,0,0,.18-1.2,3.55,3.55,0,0,0-.81-2.5A3.6,3.6,0,0,0,8.07,12.38Z" style="fill:url(#5f8ba64e-9b99-4914-a179-dcfca055f9bd)"/><path d="M31,6.63a7.32,7.32,0,0,1-.46,2.68,5.76,5.76,0,0,1-1.28,2,5.61,5.61,0,0,1-2,1.26,7.34,7.34,0,0,1-5,0,5.78,5.78,0,0,1-2-1.26,5.63,5.63,0,0,1-1.29-2,7.3,7.3,0,0,1-.46-2.68A7.52,7.52,0,0,1,19,3.91a5.76,5.76,0,0,1,1.29-2,5.66,5.66,0,0,1,2-1.28,7.33,7.33,0,0,1,5,0,5.5,5.5,0,0,1,2,1.28,5.9,5.9,0,0,1,1.28,2A7.54,7.54,0,0,1,31,6.63Zm-3.64,0a3.88,3.88,0,0,0-.67-2.41,2.26,2.26,0,0,0-1.91-.88,2.32,2.32,0,0,0-1.92.88,3.76,3.76,0,0,0-.7,2.41,3.65,3.65,0,0,0,.69,2.31,2.31,2.31,0,0,0,1.93.88,2.26,2.26,0,0,0,1.91-.88A3.71,3.71,0,0,0,27.34,6.63Z" style="fill:url(#4d8206e4-0b1c-412c-98db-a6f4cc1e30df)"/></g></svg>