<svg id="77054deb-6917-4d15-ac9d-ffab6189d9e5" data-name="Capa 1" xmlns="http://www.w3.org/2000/svg" xmlns:xlink="http://www.w3.org/1999/xlink" viewBox="0 0 31.23 33.01"><defs><linearGradient id="cd617750-631f-4dc0-b45d-9e7369857f9a" x1="2.52" y1="32.58" x2="2.52" y2="26.92" gradientUnits="userSpaceOnUse"><stop offset="0" stop-color="#e9ebed"/><stop offset="0" stop-color="#e8eaec"/><stop offset="1" stop-color="#d1d4d9"/></linearGradient><linearGradient id="09bd746c-eca9-4eed-b1d7-47021919a849" x1="8.37" y1="32.47" x2="8.37" y2="26.92" xlink:href="#cd617750-631f-4dc0-b45d-9e7369857f9a"/><linearGradient id="ded0a297-e6ac-443f-a5c8-3b44b56bcf42" x1="12.66" y1="32.47" x2="12.66" y2="26.92" xlink:href="#cd617750-631f-4dc0-b45d-9e7369857f9a"/><linearGradient id="4dbfec4b-4b5f-411f-9fd5-8b6f8e488e42" x1="16.99" y1="32.54" x2="16.99" y2="26.86" xlink:href="#cd617750-631f-4dc0-b45d-9e7369857f9a"/><linearGradient id="f71ec8e4-7879-4f4a-ba14-1c1f8cfa9962" x1="22.51" y1="32.47" x2="22.51" y2="26.92" xlink:href="#cd617750-631f-4dc0-b45d-9e7369857f9a"/><linearGradient id="5ee35d9c-834a-451d-9841-059ca3b5409c" x1="28.46" y1="32.54" x2="28.46" y2="26.86" xlink:href="#cd617750-631f-4dc0-b45d-9e7369857f9a"/><linearGradient id="1155c15d-13df-46c6-95a1-dd749a736d95" x1="8.44" y1="22.79" x2="8.44" y2="0.65" xlink:href="#cd617750-631f-4dc0-b45d-9e7369857f9a"/><linearGradient id="1732d28a-62ad-484c-b512-b5361c934c5c" x1="24.74" y1="13.03" x2="24.74" y2="0.17" xlink:href="#cd617750-631f-4dc0-b45d-9e7369857f9a"/></defs><title>UI Masclapp</title><g id="137d96d9-7454-4156-bbf9-f32f681d3bd5" data-name="Tareas"><path d="M2.5,32.58a2.79,2.79,0,0,1-1-.16A1.89,1.89,0,0,1,.79,32a1.82,1.82,0,0,1-.41-0.7,2.83,2.83,0,0,1-.13-0.89V26.92H1.5v3.34a1.88,1.88,0,0,0,.08.57,1.06,1.06,0,0,0,.21.38,0.74,0.74,0,0,0,.32.21,1.26,1.26,0,0,0,.41.06,1,1,0,0,0,.74-0.28,1.31,1.31,0,0,0,.28-1V26.92H4.79v3.45a2.81,2.81,0,0,1-.14.9,1.83,1.83,0,0,1-.42.7,1.86,1.86,0,0,1-.71.45A3,3,0,0,1,2.5,32.58Z" style="fill:url(#cd617750-631f-4dc0-b45d-9e7369857f9a)"/><path d="M9.71,32.47q-0.54-1-1.16-1.88a19.08,19.08,0,0,0-1.33-1.75v3.63H6V26.92H7q0.26,0.26.58,0.65t0.65,0.82q0.33,0.44.66,0.9l0.62,0.9V26.92h1.24v5.54h-1Z" style="fill:url(#09bd746c-eca9-4eed-b1d7-47021919a849)"/><path d="M12,26.92h1.25v5.54H12V26.92Z" style="fill:url(#ded0a297-e6ac-443f-a5c8-3b44b56bcf42)"/><path d="M19.42,29.69a3.26,3.26,0,0,1-.22,1.26,2.33,2.33,0,0,1-.64.89,2.73,2.73,0,0,1-1,.53,4.66,4.66,0,0,1-1.33.18l-0.78,0a6.42,6.42,0,0,1-.88-0.12V27a7.25,7.25,0,0,1,.9-0.11l0.8,0a4.86,4.86,0,0,1,1.29.16,2.67,2.67,0,0,1,1,.5,2.25,2.25,0,0,1,.64.88A3.35,3.35,0,0,1,19.42,29.69Zm-3.61,1.76h0.48A1.84,1.84,0,0,0,17.68,31a1.81,1.81,0,0,0,.45-1.3,1.83,1.83,0,0,0-.43-1.32,1.83,1.83,0,0,0-1.37-.45H16.07l-0.26,0v3.5Z" style="fill:url(#4dbfec4b-4b5f-411f-9fd5-8b6f8e488e42)"/><path d="M24,32.47l-0.2-.59-0.21-.61H21.4l-0.21.61-0.2.59H19.7q0.31-.9.59-1.66t0.55-1.43q0.27-.67.53-1.28t0.54-1.18H23.1q0.27,0.58.54,1.18t0.53,1.28q0.27,0.67.55,1.43t0.59,1.66H24Zm-1.5-4.29-0.12.33L22.17,29l-0.23.6-0.26.69h1.59L23,29.58q-0.12-.33-0.23-0.6l-0.19-.48Z" style="fill:url(#f71ec8e4-7879-4f4a-ba14-1c1f8cfa9962)"/><path d="M30.88,29.69a3.26,3.26,0,0,1-.22,1.26,2.33,2.33,0,0,1-.64.89,2.73,2.73,0,0,1-1,.53,4.66,4.66,0,0,1-1.33.18l-0.78,0A6.42,6.42,0,0,1,26,32.39V27a7.25,7.25,0,0,1,.9-0.11l0.8,0A4.86,4.86,0,0,1,29,27a2.67,2.67,0,0,1,1,.5,2.25,2.25,0,0,1,.64.88A3.35,3.35,0,0,1,30.88,29.69Zm-3.61,1.76h0.48A1.84,1.84,0,0,0,29.14,31a1.81,1.81,0,0,0,.45-1.3,1.56,1.56,0,0,0-1.8-1.77H27.53l-0.26,0v3.5Z" style="fill:url(#5ee35d9c-834a-451d-9841-059ca3b5409c)"/><path d="M3.86,22.79a32,32,0,0,1,.8-4.85A46.26,46.26,0,0,1,6.14,13a41.6,41.6,0,0,1,2-4.58A28.36,28.36,0,0,1,10.3,4.7H0.7V0.65H16.17V4.09a21.3,21.3,0,0,0-2.25,3.1,35.75,35.75,0,0,0-2.33,4.48A41.43,41.43,0,0,0,9.68,17a27.86,27.86,0,0,0-1,5.74H3.86Z" style="fill:url(#1155c15d-13df-46c6-95a1-dd749a736d95)"/><path d="M31,6.64a7.32,7.32,0,0,1-.46,2.68,5.76,5.76,0,0,1-1.28,2,5.61,5.61,0,0,1-2,1.26,7.34,7.34,0,0,1-5,0,5.78,5.78,0,0,1-2-1.26,5.63,5.63,0,0,1-1.29-2,7.3,7.3,0,0,1-.46-2.68A7.52,7.52,0,0,1,19,3.92a5.76,5.76,0,0,1,1.29-2,5.66,5.66,0,0,1,2-1.28,7.33,7.33,0,0,1,5,0,5.5,5.5,0,0,1,2,1.28,5.9,5.9,0,0,1,1.28,2A7.54,7.54,0,0,1,31,6.64Zm-3.64,0a3.88,3.88,0,0,0-.67-2.41,2.26,2.26,0,0,0-1.91-.88,2.32,2.32,0,0,0-1.92.88,3.76,3.76,0,0,0-.7,2.41A3.65,3.65,0,0,0,22.83,9a2.31,2.31,0,0,0,1.93.88A2.26,2.26,0,0,0,26.67,9,3.71,3.71,0,0,0,27.34,6.64Z" style="fill:url(#1732d28a-62ad-484c-b512-b5361c934c5c)"/></g></svg>