<svg id="d0a89fc0-2557-43b1-afb9-065f97cb978c" data-name="Capa 1" xmlns="http://www.w3.org/2000/svg" xmlns:xlink="http://www.w3.org/1999/xlink" viewBox="0 0 42.47 42.47"><defs><radialGradient id="ada05546-48a5-4be0-83e2-51d67b65ca41" cx="4119.78" cy="2298.3" r="27.14" gradientTransform="translate(-4098.71 -3193.18) scale(1 1.41)" gradientUnits="userSpaceOnUse"><stop offset="0" stop-color="#dcdcdc"/><stop offset="0.55" stop-color="#dadada"/><stop offset="0.83" stop-color="#d2d2d2"/><stop offset="0.99" stop-color="#c9c9c9"/></radialGradient><linearGradient id="2dcbe74c-7352-4243-9fc0-f39702e15a87" x1="4119.94" y1="2300.7" x2="4119.94" y2="2258.23" gradientUnits="userSpaceOnUse"><stop offset="0" stop-color="#ccc"/><stop offset="1" stop-color="#eeefed"/></linearGradient><linearGradient id="d0e03620-9905-4b31-b49e-c13353ce8916" x1="4089.71" y1="2053.62" x2="4102.95" y2="2055.45" gradientTransform="translate(2066.94 6377.33) rotate(-90)" gradientUnits="userSpaceOnUse"><stop offset="0" stop-color="#2b54a5"/><stop offset="0.26" stop-color="#29519f"/><stop offset="0.59" stop-color="#24498f"/><stop offset="0.97" stop-color="#1c3b73"/><stop offset="1" stop-color="#1b3a71"/></linearGradient></defs><title>arrow</title><g id="e216f3a4-f995-4003-b486-a6e6ae1b9ce1" data-name="Tareas"><circle cx="21.24" cy="21.24" r="19.24" style="fill:url(#ada05546-48a5-4be0-83e2-51d67b65ca41)"/><path d="M4119.94,2260.23a19.24,19.24,0,1,1-19.24,19.24,19.24,19.24,0,0,1,19.24-19.24m0-2a21.24,21.24,0,1,0,21.24,21.24,21.26,21.26,0,0,0-21.24-21.24h0Z" transform="translate(-4098.71 -2258.23)" style="fill:url(#2dcbe74c-7352-4243-9fc0-f39702e15a87)"/><path d="M4117.07,2287.76V2273a0.38,0.38,0,0,1,.62-0.3l9.25,7.4a0.38,0.38,0,0,1,0,.6l-9.25,7.4A0.38,0.38,0,0,1,4117.07,2287.76Z" transform="translate(-4098.71 -2258.23)" style="fill:url(#d0e03620-9905-4b31-b49e-c13353ce8916)"/></g></svg>