<svg id="aabbff17-ccfd-4741-a107-1f3a5723299a" data-name="Capa 1" xmlns="http://www.w3.org/2000/svg" xmlns:xlink="http://www.w3.org/1999/xlink" viewBox="0 0 30.73 32.41"><defs><linearGradient id="2e41c2f2-6dff-414b-9668-3a0d2a89dbc7" x1="4737.68" y1="1702.76" x2="4737.68" y2="1697.1" gradientUnits="userSpaceOnUse"><stop offset="0" stop-color="#ebedef"/><stop offset="0" stop-color="#e8eaec"/><stop offset="0.03" stop-color="#dbdee1"/><stop offset="0.03" stop-color="#dbdee1"/><stop offset="0.43" stop-color="#d1d5d9"/><stop offset="0.94" stop-color="#ced2d6"/><stop offset="0.95" stop-color="#ced2d6"/><stop offset="1" stop-color="#ced2d6"/></linearGradient><linearGradient id="f7c9edb7-c83f-4580-ad6a-84086e00544c" x1="4743.53" y1="1702.65" x2="4743.53" y2="1697.1" xlink:href="#2e41c2f2-6dff-414b-9668-3a0d2a89dbc7"/><linearGradient id="bca36eff-2990-430c-b818-31423103b23e" x1="4747.82" y1="1702.65" x2="4747.82" y2="1697.1" xlink:href="#2e41c2f2-6dff-414b-9668-3a0d2a89dbc7"/><linearGradient id="934d7eaa-4faf-42e1-bae2-05557fb0b9c1" x1="4752.15" y1="1702.72" x2="4752.15" y2="1697.04" xlink:href="#2e41c2f2-6dff-414b-9668-3a0d2a89dbc7"/><linearGradient id="4d656582-8cf6-41ec-9cfe-0f9566df912f" x1="4757.67" y1="1702.65" x2="4757.67" y2="1697.1" xlink:href="#2e41c2f2-6dff-414b-9668-3a0d2a89dbc7"/><linearGradient id="84077c6b-ef1f-4f3e-ab03-57578668a8bc" x1="4763.62" y1="1702.72" x2="4763.62" y2="1697.04" xlink:href="#2e41c2f2-6dff-414b-9668-3a0d2a89dbc7"/><linearGradient id="2c027134-bcc5-400f-85e2-65195820497e" x1="4744.85" y1="1692.94" x2="4741.76" y2="1671.21" gradientUnits="userSpaceOnUse"><stop offset="0" stop-color="#ebedef"/><stop offset="0.03" stop-color="#e7e9eb"/><stop offset="0.14" stop-color="#d9dcdf"/><stop offset="0.28" stop-color="#d0d4d8"/><stop offset="0.53" stop-color="#ced2d6"/><stop offset="0.84" stop-color="#cbcfd4"/><stop offset="1" stop-color="#c5c9ce"/></linearGradient><linearGradient id="58e5bc2c-a821-4e2c-a375-efc5f966b689" x1="4761.86" y1="1690.52" x2="4758.76" y2="1668.79" xlink:href="#2c027134-bcc5-400f-85e2-65195820497e"/></defs><title>primera-unidad</title><g id="ef21f33f-d7ab-4857-9ac6-07a1c3274c58" data-name="Tareas"><path d="M4737.66,1702.76a2.79,2.79,0,0,1-1-.16,1.89,1.89,0,0,1-.7-0.46,1.82,1.82,0,0,1-.41-0.7,2.83,2.83,0,0,1-.13-0.89v-3.45h1.25v3.34a1.88,1.88,0,0,0,.08.57,1.06,1.06,0,0,0,.21.38,0.74,0.74,0,0,0,.32.21,1.26,1.26,0,0,0,.41.06,1,1,0,0,0,.74-0.28,1.31,1.31,0,0,0,.28-1v-3.34H4740v3.45a2.81,2.81,0,0,1-.14.9,1.83,1.83,0,0,1-.42.7,1.87,1.87,0,0,1-.71.45A3,3,0,0,1,4737.66,1702.76Z" transform="translate(-4735.41 -1670.35)" style="fill:url(#2e41c2f2-6dff-414b-9668-3a0d2a89dbc7)"/><path d="M4744.87,1702.65q-0.54-1-1.16-1.88a19.08,19.08,0,0,0-1.33-1.75v3.63h-1.23v-5.54h1q0.26,0.26.58,0.65t0.65,0.82q0.33,0.44.66,0.9l0.62,0.9v-3.27h1.24v5.54h-1Z" transform="translate(-4735.41 -1670.35)" style="fill:url(#f7c9edb7-c83f-4580-ad6a-84086e00544c)"/><path d="M4747.2,1697.1h1.25v5.54h-1.25v-5.54Z" transform="translate(-4735.41 -1670.35)" style="fill:url(#bca36eff-2990-430c-b818-31423103b23e)"/><path d="M4754.58,1699.87a3.26,3.26,0,0,1-.22,1.26,2.33,2.33,0,0,1-.64.89,2.73,2.73,0,0,1-1,.53,4.66,4.66,0,0,1-1.33.18l-0.78,0a6.42,6.42,0,0,1-.88-0.12v-5.4a7.25,7.25,0,0,1,.9-0.11l0.8,0a4.86,4.86,0,0,1,1.29.16,2.67,2.67,0,0,1,1,.5,2.25,2.25,0,0,1,.64.88A3.35,3.35,0,0,1,4754.58,1699.87Zm-3.61,1.76h0.48a1.84,1.84,0,0,0,1.39-.47,1.81,1.81,0,0,0,.45-1.3,1.56,1.56,0,0,0-1.8-1.77h-0.26l-0.26,0v3.5Z" transform="translate(-4735.41 -1670.35)" style="fill:url(#934d7eaa-4faf-42e1-bae2-05557fb0b9c1)"/><path d="M4759.14,1702.65l-0.2-.59-0.21-.61h-2.17l-0.21.61-0.2.59h-1.3q0.31-.9.59-1.66t0.55-1.43q0.27-.67.53-1.28t0.54-1.18h1.18q0.27,0.58.54,1.18t0.53,1.28q0.27,0.67.55,1.43t0.59,1.66h-1.34Zm-1.5-4.29-0.12.33-0.18.48-0.23.6-0.26.69h1.59l-0.25-.69q-0.12-.33-0.23-0.6l-0.19-.48Z" transform="translate(-4735.41 -1670.35)" style="fill:url(#4d656582-8cf6-41ec-9cfe-0f9566df912f)"/><path d="M4766,1699.87a3.26,3.26,0,0,1-.22,1.26,2.33,2.33,0,0,1-.64.89,2.73,2.73,0,0,1-1,.53,4.66,4.66,0,0,1-1.33.18l-0.78,0a6.42,6.42,0,0,1-.88-0.12v-5.4a7.25,7.25,0,0,1,.9-0.11l0.8,0a4.86,4.86,0,0,1,1.29.16,2.67,2.67,0,0,1,1,.5,2.25,2.25,0,0,1,.64.88A3.35,3.35,0,0,1,4766,1699.87Zm-3.61,1.76h0.48a1.84,1.84,0,0,0,1.39-.47,1.81,1.81,0,0,0,.45-1.3,1.56,1.56,0,0,0-1.8-1.77h-0.26l-0.26,0v3.5Z" transform="translate(-4735.41 -1670.35)" style="fill:url(#84077c6b-ef1f-4f3e-ab03-57578668a8bc)"/><path d="M4736.72,1675.45q0.93-.38,1.93-0.88t2-1.08q1-.59,1.83-1.25a12.61,12.61,0,0,0,1.58-1.39h3.32V1693h-4.75V1677a14.53,14.53,0,0,1-2.14,1.17q-1.18.53-2.3,0.91Z" transform="translate(-4735.41 -1670.35)" style="fill:url(#2c027134-bcc5-400f-85e2-65195820497e)"/><path d="M4766.14,1676.82a7.32,7.32,0,0,1-.46,2.68,5.76,5.76,0,0,1-1.28,2,5.61,5.61,0,0,1-2,1.26,7.34,7.34,0,0,1-5,0,5.78,5.78,0,0,1-2-1.26,5.63,5.63,0,0,1-1.29-2,7.3,7.3,0,0,1-.46-2.68,7.52,7.52,0,0,1,.46-2.73,5.76,5.76,0,0,1,1.29-2,5.66,5.66,0,0,1,2-1.28,7.33,7.33,0,0,1,5,0,5.5,5.5,0,0,1,2,1.28,5.9,5.9,0,0,1,1.28,2A7.54,7.54,0,0,1,4766.14,1676.82Zm-3.64,0a3.88,3.88,0,0,0-.67-2.41,2.26,2.26,0,0,0-1.91-.88,2.32,2.32,0,0,0-1.92.88,3.76,3.76,0,0,0-.7,2.41,3.65,3.65,0,0,0,.69,2.31,2.31,2.31,0,0,0,1.93.88,2.26,2.26,0,0,0,1.91-.88A3.71,3.71,0,0,0,4762.5,1676.82Z" transform="translate(-4735.41 -1670.35)" style="fill:url(#58e5bc2c-a821-4e2c-a375-efc5f966b689)"/></g></svg>